# xmcd
#
# Track frame offsets: 
#        150
#        12120
#        24090
#        37171
#        50245
#        62161
#        74077
#        87994
#        101911
#        117467
#        133021
#        146078
#        159159
#        175934
#        192709
#        207909
#        223108
#        235489
#        247875
#        272197
#        296518
#
# Disc length: 3980 seconds
#
# Revision: 1
# Processed by: cddbd v1.5.2PL0 Copyright (c) Steve Scherf et al.
# Submitted via: ExactAudioCopy v0.99pb1
#
DISCID=4e0f8a15
DTITLE=Hal Leonard - Hal Leonhard Guitar Method^ Blues Guitar Songs
DYEAR=1990
DGENRE=Blues
TTITLE0=Boom Boom Demo
TTITLE1=Boom Boom Play Along
TTITLE2=Born Under a Bad Sign Demo
TTITLE3=Born Under a Bad Sign Play Along
TTITLE4=Hide Away Demo
TTITLE5=Hide Away Play Along
TTITLE6=I'm Tore Down Demo
TTITLE7=I'm Tore Down Play Along
TTITLE8=I'm Your Hoochie Coochie Man Demo
TTITLE9=I'm Your Hoochie Coochie Man Play Along
TTITLE10=Killing Floor Demo
TTITLE11=Killing Floor Play Along
TTITLE12=Pride and Joy Demo
TTITLE13=Pride and Joy Play Along
TTITLE14=Sweet Home Chicago Demo
TTITLE15=Sweet Home Chicago Play Along
TTITLE16=Texas Flood Demo
TTITLE17=Texas Flood Play Along
TTITLE18=The Thrill Is Gone Demo
TTITLE19=The Thrill Is Gone Play Along
TTITLE20=Tuning Notes
EXTD=
EXTT0=
EXTT1=
EXTT2=
EXTT3=
EXTT4=
EXTT5=
EXTT6=
EXTT7=
EXTT8=
EXTT9=
EXTT10=
EXTT11=
EXTT12=
EXTT13=
EXTT14=
EXTT15=
EXTT16=
EXTT17=
EXTT18=
EXTT19=
EXTT20=
PLAYORDER=
